<svg xmlns="http://www.w3.org/2000/svg" width="804.291" height="224.1" viewBox="0 0 804.291 224.1">
  <g id="undraw_contact_us_15o2" transform="translate(-254.857 -63.091)">
    <g id="Groupe_3" data-name="Groupe 3" transform="translate(3 63.449)" opacity="0.16">
      <ellipse id="Ellipse_7" data-name="Ellipse 7" cx="7.559" cy="9.897" rx="7.559" ry="9.897" transform="translate(1012.541 203.947)" fill="#e6f2ff"/>
      <path id="Tracé_7" data-name="Tracé 7" d="M1080.771,412.938a11.957,11.957,0,0,1-1.581-6.051c0-5.467,3.388-9.9,7.566-9.9s7.559,4.43,7.559,9.9a11.956,11.956,0,0,1-1.581,6.051,12.362,12.362,0,0,1,0,12.1,12.362,12.362,0,0,1,0,12.1,11.917,11.917,0,0,1,1.581,6.051c0,5.46-3.388,9.9-7.559,9.9s-7.566-4.437-7.566-9.9a11.916,11.916,0,0,1,1.581-6.051,12.362,12.362,0,0,1,0-12.1A12.362,12.362,0,0,1,1080.771,412.938Z" transform="translate(-66.655 -241.439)" fill="#e6f2ff"/>
      <ellipse id="Ellipse_8" data-name="Ellipse 8" cx="7.559" cy="9.897" rx="7.559" ry="9.897" transform="translate(1012.541 143.468)" fill="#e6f2ff"/>
      <ellipse id="Ellipse_9" data-name="Ellipse 9" cx="7.559" cy="9.897" rx="7.559" ry="9.897" transform="translate(1012.541 131.372)" fill="#e6f2ff"/>
      <path id="Tracé_8" data-name="Tracé 8" d="M1100.4,221.115a35.27,35.27,0,0,0,2.816-4.145l-19.861-3.261,21.481.159a36.281,36.281,0,0,0,.664-28.7l-28.821,14.952,26.57-19.542a36.221,36.221,0,1,0-59.781,40.519,36.23,36.23,0,0,0-4.131,6.6l25.792,13.431-27.493-9.226a36.221,36.221,0,0,0,5.839,34.009,36.214,36.214,0,1,0,56.925,0,36.214,36.214,0,0,0,0-44.783Z" transform="translate(-52 -162.63)" fill="#e6f2ff"/>
      <path id="Tracé_9" data-name="Tracé 9" d="M1035.81,284.3a36.048,36.048,0,0,0,7.752,22.391,36.214,36.214,0,1,0,56.925,0C1105.342,300.528,1035.81,280.235,1035.81,284.3Z" transform="translate(-52.09 -203.423)" fill="#e6f2ff" opacity="0.1"/>
    </g>
    <g id="Groupe_4" data-name="Groupe 4" transform="translate(5 53.578)" opacity="0.08">
      <ellipse id="Ellipse_10" data-name="Ellipse 10" cx="5.072" cy="6.633" rx="5.072" ry="6.633" transform="translate(907.098 220.346)" fill="#f0fe94"/>
      <path id="Tracé_10" data-name="Tracé 10" d="M973.285,432.012a8,8,0,0,1-1.055-4.053c0-3.665,2.271-6.639,5.066-6.639s5.072,2.98,5.072,6.639a7.944,7.944,0,0,1-1.061,4.053,8.284,8.284,0,0,1,0,8.111,8.284,8.284,0,0,1,0,8.111,7.943,7.943,0,0,1,1.061,4.053c0,3.665-2.271,6.639-5.072,6.639s-5.066-2.98-5.066-6.639a8,8,0,0,1,1.055-4.053,8.344,8.344,0,0,1,0-8.111A8.344,8.344,0,0,1,973.285,432.012Z" transform="translate(-65.119 -233.419)" fill="#f0fe94"/>
      <ellipse id="Ellipse_11" data-name="Ellipse 11" cx="5.072" cy="6.633" rx="5.072" ry="6.633" transform="translate(907.098 179.795)" fill="#f0fe94"/>
      <ellipse id="Ellipse_12" data-name="Ellipse 12" cx="5.072" cy="6.633" rx="5.072" ry="6.633" transform="translate(907.098 171.684)" fill="#f0fe94"/>
      <path id="Tracé_11" data-name="Tracé 11" d="M983.147,285.443a23.247,23.247,0,0,0,1.889-2.777l-13.32-2.187,14.405.107a24.34,24.34,0,0,0,.465-19.245l-19.328,10.031,17.826-13.112a24.287,24.287,0,1,0-40.1,27.177,24.553,24.553,0,0,0-2.771,4.428l17.284,8.982-18.4-6.18a24.293,24.293,0,0,0,3.916,22.8,24.281,24.281,0,1,0,38.143,0,24.28,24.28,0,0,0,0-30.026Z" transform="translate(-52 -162.63)" fill="#f0fe94"/>
      <path id="Tracé_12" data-name="Tracé 12" d="M939.792,337.058a24.18,24.18,0,0,0,5.2,15.013,24.281,24.281,0,1,0,38.143,0C986.4,347.941,939.792,334.334,939.792,337.058Z" transform="translate(-52.009 -199.232)" fill="#f0fe94" opacity="0.1"/>
    </g>
    <path id="Tracé_19" data-name="Tracé 19" d="M860.79,273a18.3,18.3,0,0,0-10.6,1.16,15.65,15.65,0,0,1-12.74,0,17.88,17.88,0,0,0-15,.29,9.24,9.24,0,0,1-4.31,1.08c-6.08,0-11.13-6.12-12.18-14.19a11.879,11.879,0,0,0,3-3.27c3.56-5.74,9.07-9.43,15.27-9.43s11.64,3.64,15.2,9.32a11.68,11.68,0,0,0,10.09,5.54h.16C854.57,263.45,858.76,267.33,860.79,273Z" transform="translate(-52 -162.63)" fill="#15db95" opacity="0.1"/>
    <path id="Tracé_20" data-name="Tracé 20" d="M879.3,247.65l-9.82,6.22,6-10.84a9.7,9.7,0,0,0-5.94-2.11h-.16a11.351,11.351,0,0,1-2-.15L864,242.88l1.43-2.6a11.79,11.79,0,0,1-5.83-4.42l-6,3.78,3.76-6.84c-3.48-4.18-8.18-6.74-13.34-6.74-6.2,0-11.71,3.68-15.28,9.42a11.41,11.41,0,0,1-10.09,5.44h-.33c-6.84,0-12.38,7.75-12.38,17.31s5.54,17.32,12.38,17.32a9.39,9.39,0,0,0,4.31-1.08,17.86,17.86,0,0,1,15-.3,15.55,15.55,0,0,0,12.74,0,17.92,17.92,0,0,1,14.86.29,9.3,9.3,0,0,0,4.26,1.06c6.84,0,12.38-7.76,12.38-17.32a21.93,21.93,0,0,0-2.57-10.55Z" transform="translate(-52 -162.63)" fill="#fff" opacity="0.44"/>
    <path id="Tracé_21" data-name="Tracé 21" d="M443.26,267.59a12.84,12.84,0,0,0-7.43.81,10.92,10.92,0,0,1-8.91,0,12.48,12.48,0,0,0-10.49.21,6.62,6.62,0,0,1-3,.75c-4.25,0-7.79-4.28-8.53-9.93a8.32,8.32,0,0,0,2.13-2.29c2.49-4,6.35-6.6,10.69-6.6s8.15,2.55,10.64,6.52a8.19,8.19,0,0,0,7.07,3.88h.11C438.9,260.92,441.83,263.64,443.26,267.59Z" transform="translate(-52 -162.63)" fill="#15db95" opacity="0.1"/>
    <path id="Tracé_22" data-name="Tracé 22" d="M456.21,249.86l-6.87,4.36,4.17-7.59a6.75,6.75,0,0,0-4.15-1.48h-.12a7.491,7.491,0,0,1-1.42-.11l-2.33,1.48,1-1.82a8.3,8.3,0,0,1-4.08-3.09l-4.17,2.64,2.64-4.78a12.21,12.21,0,0,0-9.34-4.73c-4.34,0-8.2,2.58-10.69,6.6a8,8,0,0,1-7.07,3.81h-.23c-4.79,0-8.67,5.42-8.67,12.12s3.88,12.12,8.67,12.12a6.5,6.5,0,0,0,3-.76,12.5,12.5,0,0,1,10.48-.2,10.74,10.74,0,0,0,8.92.06,12.54,12.54,0,0,1,10.4.2,6.48,6.48,0,0,0,3,.74c4.78,0,8.66-5.43,8.66-12.12a15.33,15.33,0,0,0-1.8-7.45Z" transform="translate(-52 -162.63)" fill="#fff" opacity="0.1"/>
    <path id="Tracé_23" data-name="Tracé 23" d="M321.59,346a12.82,12.82,0,0,1,7.42.81,10.94,10.94,0,0,0,8.92,0,12.52,12.52,0,0,1,10.49.2,6.47,6.47,0,0,0,3,.76c4.25,0,7.79-4.29,8.52-9.94a8.15,8.15,0,0,1-2.12-2.29c-2.5-4-6.36-6.59-10.69-6.59s-8.15,2.54-10.65,6.52a8.19,8.19,0,0,1-7.06,3.88h-.11C325.94,339.37,323,342.08,321.59,346Z" transform="translate(-52 -162.63)" fill="#15db95" opacity="0.1"/>
    <path id="Tracé_24" data-name="Tracé 24" d="M308.63,328.3l6.88,4.36-4.18-7.58a6.79,6.79,0,0,1,4.16-1.49h.11a8.519,8.519,0,0,0,1.43-.1l2.33,1.47-1-1.81a8.291,8.291,0,0,0,4.07-3.09l4.17,2.64-2.6-4.79a12.2,12.2,0,0,1,9.34-4.72c4.33,0,8.2,2.58,10.69,6.6a8,8,0,0,0,7.06,3.81h.24c4.78,0,8.66,5.43,8.66,12.12s-3.88,12.12-8.66,12.12a6.49,6.49,0,0,1-3-.75,12.48,12.48,0,0,0-10.49-.21,10.86,10.86,0,0,1-4.48,1,11,11,0,0,1-4.44-.94,12.52,12.52,0,0,0-10.39.2,6.48,6.48,0,0,1-3,.74c-4.79,0-8.67-5.42-8.67-12.12a15.441,15.441,0,0,1,1.77-7.46Z" transform="translate(-52 -162.63)" fill="#15db95" opacity="0.1"/>
  </g>
</svg>
