<svg id="Capa_1" enable-background="new 0 0 512 512" height="512" viewBox="0 0 512 512" width="512" xmlns="http://www.w3.org/2000/svg"><g><g><path d="m512 227.941c-52.139-105.27-113.642-216.016-141.632-216.016-30.721 0-99.245 126.765-151.844 254.293v147.936l293.476-.001z" fill="#8bb6ef"/><path d="m470.62 142.189c-44.362-84.702-76.352-130.264-100.252-130.264s-55.471 49.367-99.834 134.068c0 0 26.627 25.08 46.408 25.106 19.78.025 31.953-21.302 50.212-22.063s40.321 22.037 54.776 22.063c14.455.025 48.69-28.91 48.69-28.91z" fill="#fff"/><path d="m471.826 149.807h-5.827c-11.752 9.003-24.702 17.461-38.549 21.812 22.7 46.819 44.171 94.489 58.646 127.818 11.828 27.234-8.122 57.665-37.814 57.665l-229.759-1.349v58.398h293.477v-186.21c-13.03-26.307-26.644-52.956-40.174-78.134z" fill="#8388ef"/><path d="m370.368 11.924c-.001 0-.001 0 0 0-6.529 0-14.768 5.737-24.197 15.788 20.847 24.972 51.694 82.965 80.635 142.574 13.493-3.913 35.166-21.021 41.804-26.437-39.488-72.858-77.801-131.925-98.242-131.925z" fill="#ffbffc"/><path d="m287.727 441.051h-235.652v-182.615l117.826-78.263 117.826 78.263z" fill="#d49c8d"/><path d="m149.07 418.231h-58.19v-68.286c0-14.994 12.155-27.149 27.149-27.149h3.892c14.994 0 27.149 12.155 27.149 27.149z" fill="#b07676"/><path d="m235.867 358.38h-38.324c-6.504 0-11.776-5.272-11.776-11.776v-38.324c0-6.504 5.272-11.776 11.776-11.776h38.324c6.504 0 11.776 5.272 11.776 11.776v38.324c.001 6.503-5.272 11.776-11.776 11.776z" fill="#b2e7f1"/><path d="m52.075 364.164h38.226v76.888h-38.226z" fill="#c7758d"/><path d="m169.901 180.172-17.363 11.533 65.736 43.665v106.387c0 12.375-10.031 22.406-22.406 22.406h-48.278v76.888h140.137v-182.615z" fill="#c7758d"/><path d="m90.88 364.164h58.19v54.067h-58.19z" fill="#a45775"/><path d="m235.867 296.503h-17.593v45.255c0 6.595-2.849 12.523-7.383 16.622h24.976c6.504 0 11.776-5.272 11.776-11.776v-38.324c.001-6.505-5.272-11.777-11.776-11.777z" fill="#a7adf1"/><path d="m34.496 290.533c-6.607 0-13.088-3.202-17.017-9.117-6.236-9.388-3.68-22.053 5.707-28.289l135.424-89.952c6.841-4.544 15.74-4.544 22.581 0l134.595 89.402c9.388 6.236 11.943 18.901 5.707 28.289-6.236 9.387-18.9 11.942-28.289 5.707l-123.303-81.903-124.134 82.453c-3.472 2.307-7.394 3.41-11.271 3.41z" fill="#b07676"/><path d="m481.524 499.846h-452.613c-10.414 0-18.856-8.442-18.856-18.857v-49.859c0-10.414 8.442-18.856 18.856-18.856h452.613c10.414 0 18.856 8.442 18.856 18.856v49.859c0 10.415-8.442 18.857-18.856 18.857z" fill="#78eac4"/><path d="m407.527 411.053h-11.641c-4.319 0-7.82-3.501-7.82-7.82v-60.042h27.281v60.042c0 4.319-3.501 7.82-7.82 7.82z" fill="#b07676"/><g fill="#78eac4"><path d="m401.706 287.265-52.098 60.715c-5.454 6.357-.938 16.184 7.438 16.184h89.319c8.376 0 12.893-9.827 7.438-16.184z"/><path d="m401.706 252.739-48.844 56.923c-5.114 5.96-.879 15.173 6.974 15.173h83.74c7.853 0 12.087-9.213 6.974-15.173z"/><path d="m396.166 222.769-33.889 48.883c-3.652 5.268.118 12.47 6.529 12.47h65.8c6.411 0 10.181-7.202 6.529-12.47l-33.889-48.883c-2.681-3.868-8.399-3.868-11.08 0z"/></g></g><g><g fill="#440a29"><path d="m197.543 364.413h38.325c9.82 0 17.809-7.989 17.809-17.809v-38.325c0-9.82-7.989-17.809-17.809-17.809h-38.325c-9.82 0-17.809 7.989-17.809 17.809v38.325c0 9.82 7.989 17.809 17.809 17.809zm-5.743-17.809v-13.129h18.873v18.872h-13.13c-3.167 0-5.743-2.577-5.743-5.743zm44.068 5.743h-13.129v-18.872h18.872v13.129c0 3.166-2.576 5.743-5.743 5.743zm5.743-44.068v13.13h-18.872v-18.873h13.129c3.167 0 5.743 2.576 5.743 5.743zm-44.068-5.743h13.13v18.873h-18.873v-13.13c0-3.167 2.576-5.743 5.743-5.743z"/><path d="m481.524 402.22h-60.144v-32.024h24.513c6.329 0 12.273-3.526 14.891-9.289 2.576-5.672 1.659-12.124-2.401-16.856l-11.6-13.519c4.739-.995 8.718-4.178 10.74-8.788 2.386-5.439 1.227-11.792-2.64-16.3l-14.281-16.644c2.69-1.275 4.951-3.396 6.388-6.142 2.42-4.623 2.077-10.158-.897-14.445l-33.888-48.883c-2.385-3.442-6.31-5.497-10.498-5.497s-8.112 2.055-10.498 5.497l-33.888 48.882c-2.973 4.288-3.317 9.823-.897 14.446 1.437 2.745 3.698 4.866 6.388 6.142l-14.528 16.931c-3.919 4.568-4.792 10.801-2.278 16.269 2.056 4.472 5.974 7.555 10.625 8.531l-11.6 13.519c-4.061 4.732-4.978 11.184-2.402 16.856 2.617 5.763 8.562 9.289 14.891 9.289h24.513v32.024h-84.251v-102.939c13.809 3.104 28.914-3.672 34.969-18.269 1.582-3.814 2.343-7.948 2.22-12.076-.306-10.237-5.36-19.247-13.621-24.733l-68.302-45.368c7.179-14.085 14.458-27.955 21.911-41.732 4.323 1.656 7.615 4.311 11.369 7.352 6.85 5.552 14.613 11.844 29.703 11.844s22.853-6.292 29.703-11.844c6.308-5.113 11.291-9.151 22.105-9.151 10.816 0 15.799 4.039 22.109 9.151 6.85 5.552 14.614 11.844 29.706 11.844 15.091 0 22.855-6.292 29.705-11.844 4.817-3.903 8.869-7.174 15.326-8.506 9.453 17.589 18.613 35.46 27.694 54.032 2.438 4.989 8.457 7.059 13.449 4.617 4.988-2.438 7.055-8.46 4.616-13.449-36.637-66.237-74.179-157.407-126.6-195.217-2.188-1.578-4.639-2.796-7.281-3.339-9.47-1.948-19.832 2.104-27.53 8.357-15.736 13.638-26.05 27.904-37.898 45.137-.083.121-.163.242-.241.367-2.435 3.896-4.837 7.5-7.38 11.314-2.512 3.768-5.11 7.664-7.702 11.811-.041.067-.082.134-.123.203-21.364 36.051-40.773 71.247-59.487 107.86l-49.445-32.843c-10.236-6.8-23.468-6.802-33.708 0l-135.426 89.953c-6.778 4.501-11.397 11.373-13.006 19.349-1.608 7.976-.016 16.1 4.486 22.878 5.66 8.522 15.152 13.609 25.392 13.609 2.559 0 5.08-.339 7.524-.964v102.597h-13.109c-15.966 0-28.91 12.943-28.91 28.91v49.859c0 15.967 12.944 28.911 28.911 28.911h452.612c15.967 0 28.911-12.944 28.911-28.911v-49.859c.001-15.967-12.943-28.91-28.91-28.91zm-168.6-312.083c2.414-3.858 4.798-7.433 7.319-11.215 2.474-3.711 5.031-7.546 7.583-11.623 10.95-15.922 20.455-29.072 34.296-41.087 1.875-1.548 3.827-2.646 5.856-3.275 2.399-.743 5.002-.108 6.943 1.485 38.379 31.485 59.038 79.423 83.838 120.607-7.371 2.266-12.397 6.322-16.999 10.051-6.31 5.113-11.293 9.151-22.109 9.151-10.817 0-15.8-4.039-22.11-9.152-6.85-5.551-14.614-11.843-29.705-11.843-15.09 0-22.853 6.292-29.703 11.844-6.308 5.113-11.291 9.151-22.105 9.151s-15.797-4.039-22.105-9.151c-3.755-3.044-7.794-6.304-13.155-8.633 10.305-18.754 20.959-37.412 32.156-56.31zm54.311 184.952 33.889-48.883c.052-.075.211-.304.582-.304s.53.23.582.304l33.889 48.884c.573.827.323 1.592.123 1.975s-.687 1.025-1.694 1.025h-65.8c-1.006 0-1.493-.642-1.694-1.025-.2-.384-.45-1.149.123-1.976zm-9.794 38.501 20.109-23.435h48.313l20.109 23.435c1.189 1.385.727 2.82.472 3.373-.253.553-1.042 1.838-2.867 1.838h-83.741c-1.825 0-2.613-1.285-2.867-1.838-.255-.553-.717-1.988.472-3.373zm-3.819 42.346c-.303-.66-.855-2.373.565-4.027l18.056-21.042h58.928l18.056 21.042c1.419 1.654.867 3.367.564 4.027s-1.244 2.194-3.424 2.194h-89.32c-2.181 0-3.121-1.534-3.425-2.194zm40.476 14.26h15.216v32.024h-15.216zm-359.603-89.718c-3.487 0-6.717-1.729-8.641-4.626-1.531-2.304-2.072-5.065-1.525-7.775s2.116-5.045 4.42-6.575l135.424-89.953c1.74-1.156 3.734-1.733 5.729-1.733 1.994 0 3.988.577 5.727 1.733l134.596 89.403c2.303 1.53 3.872 3.865 4.419 6.575s.006 5.471-1.525 7.775c-3.157 4.754-9.594 6.052-14.35 2.895l-123.304-81.903c-3.37-2.238-7.753-2.239-11.127 0l-124.133 82.453c-1.705 1.132-3.68 1.731-5.71 1.731zm27.634 7.848 107.772-71.585 107.771 71.585v113.894h-122.57v-52.275c0-18.326-14.856-33.182-33.182-33.182h-3.892c-18.326 0-33.182 14.856-33.182 33.182v52.275h-22.717zm80.908 113.894h-46.124v-52.275c0-11.662 9.454-21.116 21.116-21.116h3.891c11.663 0 21.117 9.454 21.117 21.117zm347.288 78.77c0 4.861-3.941 8.802-8.802 8.802h-452.612c-4.861 0-8.802-3.941-8.802-8.802v-49.86c0-4.861 3.94-8.801 8.801-8.801h452.613c4.861 0 8.802 3.941 8.802 8.802z"/><path d="m193.631 277.659c3.332 0 6.033-2.701 6.033-6.033v-15.235c0-3.332-2.701-6.033-6.033-6.033s-6.033 2.701-6.033 6.033v15.235c0 3.332 2.701 6.033 6.033 6.033z"/><path d="m159.499 311.802c3.332 0 6.033-2.701 6.033-6.033v-15.236c0-3.332-2.701-6.033-6.033-6.033s-6.033 2.701-6.033 6.033v15.236c0 3.332 2.701 6.033 6.033 6.033z"/><path d="m250.984 372.727v15.235c0 3.332 2.701 6.033 6.033 6.033s6.033-2.701 6.033-6.033v-15.235c0-3.332-2.701-6.033-6.033-6.033-3.331 0-6.033 2.702-6.033 6.033z"/></g><path d="m146.974 274.064c-3.099 0-6.155-1.428-8.124-4.121-3.278-4.482-2.301-10.773 2.182-14.051l4.581-3.349c4.481-3.277 10.772-2.302 14.051 2.182 3.277 4.482 2.3 10.773-2.182 14.051l-4.581 3.349c-1.789 1.308-3.868 1.939-5.927 1.939z" fill="#fff"/><path d="m110.7 300.589c-3.099 0-6.155-1.428-8.124-4.121-3.278-4.482-2.301-10.773 2.182-14.051l13.175-9.634c4.48-3.277 10.773-2.301 14.051 2.184 3.277 4.482 2.3 10.773-2.184 14.051l-13.173 9.632c-1.789 1.308-3.868 1.939-5.927 1.939z" fill="#fff"/></g><g><path d="m34.923 69.529-8.259 23.224c-.354.994-1.054 1.782-1.937 2.18l-20.634 9.297c-2.915 1.313-2.915 5.958 0 7.271l20.634 9.296c.883.398 1.583 1.186 1.937 2.18l8.259 23.224c1.167 3.281 5.293 3.281 6.46 0l8.259-23.224c.354-.994 1.054-1.782 1.937-2.18l20.634-9.296c2.915-1.313 2.915-5.958 0-7.271l-20.634-9.296c-.883-.398-1.583-1.186-1.937-2.18l-8.259-23.224c-1.167-3.282-5.293-3.282-6.46-.001z" fill="#bdf4e3"/><path d="m228.617 8.369-6.127 17.227c-.262.738-.782 1.322-1.437 1.617l-15.306 6.896c-2.162.974-2.162 4.419 0 5.394l15.306 6.896c.655.295 1.175.88 1.437 1.617l6.127 17.227c.866 2.434 3.926 2.434 4.792 0l6.127-17.227c.262-.738.782-1.322 1.437-1.617l15.306-6.896c2.162-.974 2.162-4.419 0-5.394l-15.306-6.896c-.655-.295-1.174-.88-1.437-1.617l-6.126-17.227c-.866-2.434-3.927-2.434-4.793 0z" fill="#bdf4e3"/><g fill="#78eac4"><ellipse cx="151.547" cy="91.49" rx="18.035" ry="18.035" transform="matrix(.987 -.16 .16 .987 -12.698 25.456)"/><path d="m83.1 24.332c0 4.296 3.483 7.78 7.78 7.78s7.78-3.483 7.78-7.78-3.483-7.78-7.78-7.78-7.78 3.483-7.78 7.78z"/></g></g></g></svg>