<svg xmlns="http://www.w3.org/2000/svg" viewBox="0 0 500 500"><g id="freepik--background-simple--inject-254"><path d="M50.62,179,52,180.61c11.89,13.56,30.17,19.77,47.54,15.56a46,46,0,0,0,6.56-2.11,50.77,50.77,0,0,0,30.17-37.25c1.78-9.7.88-20.34,6-28.7,6.71-10.87,20.86-13.67,33.42-15.49s26.71-4.65,33.37-15.55c4.17-6.83,4.35-15.53,2.53-23.37C206.85,53,189,36.79,168.74,30.75s-42.22-3-61.81,4.67C79.47,46.18,55.18,66.72,43.21,93.93S33,155,50.62,179Z" style="fill:#f5f5f5"></path><circle cx="313.54" cy="78.19" r="28.68" style="fill:#f5f5f5"></circle></g></svg>