<svg height="512" viewBox="0 0 192 192" width="512" xmlns="http://www.w3.org/2000/svg" xmlns:xlink="http://www.w3.org/1999/xlink"><linearGradient id="New_Gradient_Swatch_1" gradientUnits="userSpaceOnUse" x1="75.244" x2="116.756" y1="88.901" y2="47.389"><stop offset="0" stop-color="#34cdfa"/><stop offset="1" stop-color="#e8d9f1"/></linearGradient><path d="m96 0a72.081 72.081 0 0 0 -72 72c0 50.73 63.634 114.948 66.343 117.657a8.078 8.078 0 0 0 11.314 0c2.709-2.709 66.343-66.927 66.343-117.657a72.081 72.081 0 0 0 -72-72z" fill="#67d9fb"/><path d="m48 64a72.058 72.058 0 0 1 37.61-63.24 72.1 72.1 0 0 0 -61.61 71.24c0 50.73 63.634 114.948 66.343 117.657a8.078 8.078 0 0 0 11.314 0c.623-.623 4.475-4.509 10.031-10.729-12.514-13.095-63.688-69.428-63.688-114.928z" fill="#34cdfa"/><circle cx="96" cy="72" fill="#e6f9fe" r="48"/><path d="m129.789 60.422-32-16a4 4 0 0 0 -3.578 0l-32 16 3.578 7.156 10.211-5.106v25.528a4 4 0 0 0 4 4h32a4 4 0 0 0 4-4v-25.528l10.211 5.106z" fill="url(#New_Gradient_Swatch_1)"/></svg>