<svg xmlns="http://www.w3.org/2000/svg" viewBox="0 0 500 500"><g id="freepik--Rocket--inject-51"><path d="M172.51,366.16a5.83,5.83,0,1,1-5.83-5.83A5.83,5.83,0,0,1,172.51,366.16Z" style="fill:#FFC727;opacity:0.6000000000000001"></path><path d="M179.59,355a2.84,2.84,0,1,1-2.84-2.84A2.84,2.84,0,0,1,179.59,355Z" style="fill:#FFC727;opacity:0.6000000000000001"></path><path d="M304.28,363.34a2.84,2.84,0,1,1-2.84-2.84A2.84,2.84,0,0,1,304.28,363.34Z" style="fill:#FFC727;opacity:0.6000000000000001"></path><path d="M361.15,389.27a2.84,2.84,0,1,1-2.84-2.84A2.84,2.84,0,0,1,361.15,389.27Z" style="fill:#FFC727;opacity:0.6000000000000001"></path><path d="M356.8,397.57a3.39,3.39,0,0,1-3.39,3.39H142.25a3.39,3.39,0,1,1,0-6.77,3.57,3.57,0,0,1,.8.09,6.68,6.68,0,0,1,11.45-4.66l.06,0c0-.41-.06-.83-.06-1.25A12.62,12.62,0,0,1,172.66,377,9,9,0,0,1,190,374.29a12.57,12.57,0,0,1,10.67-5.9,13.58,13.58,0,0,1,2.41.23,16.63,16.63,0,0,1-.26-2.93,17.06,17.06,0,0,1,28.2-12.93,3.39,3.39,0,0,1,3-1.84,3.5,3.5,0,0,1,1.3.26l3.17-126.63h18.6l3.17,126.63a3.5,3.5,0,0,1,1.3-.26,3.4,3.4,0,0,1,3,1.84,17.06,17.06,0,0,1,28.2,12.93,16.63,16.63,0,0,1-.26,2.93,13.58,13.58,0,0,1,2.41-.23,12.58,12.58,0,0,1,10.67,5.9A9,9,0,0,1,323,377a12.62,12.62,0,0,1,18.16,11.32c0,.42,0,.84-.06,1.25l.06,0a6.68,6.68,0,0,1,11.45,4.66,3.5,3.5,0,0,1,.8-.09A3.39,3.39,0,0,1,356.8,397.57Z" style="fill:#FFC727;opacity:0.6000000000000001"></path><path d="M214.17,144.23l-35.49,38.7s35.52,81.24,35.49,81.8l-5-67.68,11-11.33Z" style="fill:#FFC727"></path><path d="M214.17,144.23l-35.49,38.7s35.52,81.24,35.49,81.8l-5-67.68,11-11.33Z" style="opacity:0.1"></path><polygon points="220.09 185.71 212.6 193.46 198.41 161.4 214.17 144.22 220.09 185.71" style="opacity:0.1"></polygon><path d="M281.75,144.23l35.49,38.7s-35.53,81.24-35.49,81.8l5.05-67.68-11-11.33Z" style="fill:#FFC727"></path><path d="M281.75,144.23l35.49,38.7s-35.53,81.24-35.49,81.8l5.05-67.68-11-11.33Z" style="opacity:0.1"></path><polygon points="275.82 185.71 283.32 193.46 297.51 161.4 281.75 144.22 275.82 185.71" style="opacity:0.1"></polygon><path d="M268.49,212.19l-41.16,0s-19.39-34.66-17.09-76c1.16-20.63,6.55-41.4,13-58.59C232.21,53.83,243.25,37,248,37s15.8,16.85,24.71,40.61c6.45,17.19,11.81,38,12.94,58.61C287.92,177.55,268.49,212.19,268.49,212.19Z" style="fill:#ebebeb"></path><path d="M272.6,130.87a23.74,23.74,0,1,1-23.72-23.75A23.72,23.72,0,0,1,272.6,130.87Z" style="opacity:0.2"></path><path d="M271.76,128.45A23.74,23.74,0,1,1,248,104.7,23.74,23.74,0,0,1,271.76,128.45Z" style="fill:#FFC727"></path><path d="M271.76,128.45A23.74,23.74,0,1,1,248,104.7,23.74,23.74,0,0,1,271.76,128.45Z" style="opacity:0.1"></path><path d="M264.48,128.43A16.46,16.46,0,1,1,248,112,16.46,16.46,0,0,1,264.48,128.43Z" style="fill:#455a64"></path><g style="opacity:0.4"><path d="M264.49,128.43a16.45,16.45,0,0,1-1.12,6L254,143.78a16.36,16.36,0,0,1-6,1.11,16,16,0,0,1-4.4-.61L263.88,124A16.35,16.35,0,0,1,264.49,128.43Z" style="fill:#fff"></path><path d="M250.44,112.15l-18.7,18.7a17.53,17.53,0,0,1-.18-2.41A16.47,16.47,0,0,1,248,112,17.41,17.41,0,0,1,250.44,112.15Z" style="fill:#fff"></path><path d="M262.43,120.46l-22.37,22.37a12.48,12.48,0,0,1-1.26-.77l22.85-22.86C261.93,119.6,262.18,120,262.43,120.46Z" style="fill:#fff"></path></g><path d="M272.75,77.61l-49.47,0C232.21,53.83,243.25,37,248,37S263.84,53.85,272.75,77.61Z" style="fill:#FFC727"></path><g style="opacity:0.1"><path d="M231.8,72.47a1.39,1.39,0,1,1-1.39-1.39A1.38,1.38,0,0,1,231.8,72.47Z"></path><path d="M240.6,72.47a1.39,1.39,0,1,1-1.38-1.38A1.39,1.39,0,0,1,240.6,72.47Z"></path><path d="M249.4,72.48A1.38,1.38,0,0,1,248,73.87a1.39,1.39,0,1,1,1.38-1.39Z"></path><path d="M258.2,72.49a1.39,1.39,0,1,1-1.38-1.39A1.38,1.38,0,0,1,258.2,72.49Z"></path><path d="M267,72.49a1.39,1.39,0,1,1-1.38-1.38A1.38,1.38,0,0,1,267,72.49Z"></path></g><path d="M231.74,205.84a1.39,1.39,0,1,1-1.38-1.39A1.38,1.38,0,0,1,231.74,205.84Z" style="fill:#FFC727"></path><path d="M240.54,205.84a1.39,1.39,0,1,1-1.38-1.38A1.38,1.38,0,0,1,240.54,205.84Z" style="fill:#FFC727"></path><path d="M249.34,205.85a1.39,1.39,0,1,1-1.38-1.39A1.38,1.38,0,0,1,249.34,205.85Z" style="fill:#FFC727"></path><path d="M258.15,205.85a1.39,1.39,0,1,1-1.39-1.38A1.39,1.39,0,0,1,258.15,205.85Z" style="fill:#FFC727"></path><path d="M267,205.86a1.39,1.39,0,1,1-2.77,0,1.37,1.37,0,0,1,1.38-1.38A1.38,1.38,0,0,1,267,205.86Z" style="fill:#FFC727"></path><polygon points="264.69 224.56 231.22 224.54 229.66 212.17 266.27 212.2 264.69 224.56" style="fill:#FFC727"></polygon><polygon points="264.69 224.56 231.22 224.54 229.66 212.17 266.27 212.2 264.69 224.56" style="opacity:0.1"></polygon><polygon points="266.27 212.2 265.49 218.22 230.25 216.9 229.66 212.17 266.27 212.2" style="opacity:0.1"></polygon><polygon points="300.31 371.43 296.16 372.2 295.23 376.57 294.3 372.2 290.16 371.43 294.29 370.42 295.23 366.29 296.18 370.42 300.31 371.43" style="fill:#fcfcfc"></polygon><polygon points="259.96 336.37 255.81 337.13 254.89 341.51 253.96 337.13 249.81 336.37 253.94 335.36 254.89 331.23 255.83 335.36 259.96 336.37" style="fill:#fcfcfc"></polygon><polygon points="246.08 232.38 241.93 233.15 241 237.52 240.07 233.15 235.93 232.38 240.06 231.37 241 227.24 241.95 231.37 246.08 232.38" style="fill:#fcfcfc"></polygon><polygon points="199.68 379.76 197.37 380.19 196.85 382.63 196.33 380.19 194.01 379.76 196.32 379.19 196.85 376.88 197.38 379.19 199.68 379.76" style="fill:#fcfcfc"></polygon><polygon points="324.42 387.05 322.1 387.48 321.59 389.92 321.07 387.48 318.75 387.05 321.06 386.48 321.59 384.17 322.11 386.48 324.42 387.05" style="fill:#fcfcfc"></polygon><polygon points="167.78 395.61 165.46 396.04 164.94 398.49 164.43 396.04 162.11 395.61 164.41 395.05 164.94 392.74 165.47 395.05 167.78 395.61" style="fill:#fcfcfc"></polygon><polygon points="268.62 393.58 266.3 394.01 265.79 396.45 265.27 394.01 262.95 393.58 265.26 393.01 265.79 390.71 266.31 393.01 268.62 393.58" style="fill:#fcfcfc"></polygon><polygon points="251.65 329.72 249.33 330.15 248.81 332.59 248.29 330.15 245.98 329.72 248.28 329.16 248.81 326.85 249.34 329.16 251.65 329.72" style="fill:#fcfcfc"></polygon><polygon points="257.88 266.44 255.56 266.87 255.04 269.31 254.52 266.87 252.21 266.44 254.51 265.88 255.04 263.57 255.57 265.88 257.88 266.44" style="fill:#fcfcfc"></polygon><path d="M329.91,392.33a.68.68,0,0,0,0,1.35A.68.68,0,0,0,329.91,392.33Z" style="fill:#fcfcfc"></path><path d="M242.68,321.24a.68.68,0,0,0,0,1.35A.68.68,0,0,0,242.68,321.24Z" style="fill:#fcfcfc"></path><path d="M253.87,236.85a.67.67,0,0,0,0,1.34A.67.67,0,0,0,253.87,236.85Z" style="fill:#fcfcfc"></path><path d="M185.34,395.61a.68.68,0,0,0,0,1.35A.68.68,0,0,0,185.34,395.61Z" style="fill:#fcfcfc"></path><path d="M227.93,386.38a.67.67,0,0,0,0,1.34A.67.67,0,0,0,227.93,386.38Z" style="fill:#fcfcfc"></path><path d="M313.07,380.25a.48.48,0,0,0,0,.95A.48.48,0,0,0,313.07,380.25Z" style="fill:#fcfcfc"></path><path d="M254.33,373.12a.48.48,0,0,0,0,.95A.48.48,0,0,0,254.33,373.12Z" style="fill:#fcfcfc"></path><path d="M246,252.53a.48.48,0,0,0,0,.95A.48.48,0,0,0,246,252.53Z" style="fill:#fcfcfc"></path><path d="M211.33,363.83a.48.48,0,0,0,0,.95A.48.48,0,0,0,211.33,363.83Z" style="fill:#fcfcfc"></path><path d="M284.9,365.77a1.29,1.29,0,0,0,0,2.58A1.29,1.29,0,0,0,284.9,365.77Z" style="fill:#fcfcfc"></path><path d="M217.42,359.46a1.29,1.29,0,0,0,0,2.58A1.29,1.29,0,0,0,217.42,359.46Z" style="fill:#fcfcfc"></path><path d="M248.81,281.69a1.29,1.29,0,0,0,0,2.58A1.29,1.29,0,0,0,248.81,281.69Z" style="fill:#fcfcfc"></path></g></svg>