<svg id="Capa_1" enable-background="new 0 0 512 512" height="512" viewBox="0 0 512 512" width="512" xmlns="http://www.w3.org/2000/svg" xmlns:xlink="http://www.w3.org/1999/xlink"><linearGradient id="lg1"><stop offset="0" stop-color="#fd3a84"/><stop offset="1" stop-color="#ffa68d"/></linearGradient><linearGradient id="SVGID_1_" gradientUnits="userSpaceOnUse" x1="165" x2="165" xlink:href="#lg1" y1="512" y2="45"/><linearGradient id="lg2"><stop offset="0" stop-color="#ffc2cc"/><stop offset="1" stop-color="#fff2f4"/></linearGradient><linearGradient id="SVGID_2_" gradientUnits="userSpaceOnUse" x1="165" x2="165" xlink:href="#lg2" y1="482" y2="0"/><linearGradient id="SVGID_3_" gradientUnits="userSpaceOnUse" x1="392.002" x2="392.002" xlink:href="#lg2" y1="467" y2="347.01"/><linearGradient id="SVGID_4_" gradientUnits="userSpaceOnUse" x1="392" x2="392" xlink:href="#lg1" y1="512" y2="272"/><g><g><g><g><path d="m255 482h-45l-41.918-32-48.082 32h-45c-8.401 0-15 6.599-15 15 0 8.399 6.599 15 15 15h180c8.401 0 15-6.601 15-15 0-8.401-6.599-15-15-15zm-120-407c0-8.401-21.599-30-30-30l-43.5 15c-.899 4.799-1.5 9.898-1.5 15v15l45 15c8.401 0 30-21.601 30-30zm0 60c0-8.401-21.599-30-30-30l-45 15v30l45 15c8.401 0 30-21.601 30-30zm135-60c0-5.102-.601-10.201-1.5-15l-43.5-15c-8.401 0-30 21.599-30 30 0 8.399 21.599 30 30 30l45-15zm-75 60c0 8.399 21.599 30 30 30l45-15v-30l-45-15c-8.401 0-30 21.599-30 30zm-60 60c0-8.401-21.599-30-30-30l-45 15v30l45 15c8.401 0 30-21.601 30-30zm60 0c0 8.399 21.599 30 30 30l45-15v-30l-45-15c-8.401 0-30 21.599-30 30zm-135 75v45c0 41.4 33.6 75 75 75h60c41.4 0 75-33.6 75-75v-45l-105-14z" fill="url(#SVGID_1_)"/></g></g><path d="m315 240h-45v-30h-45c-8.401 0-15-6.601-15-15 0-8.401 6.599-15 15-15h45v-30h-45c-8.401 0-15-6.601-15-15 0-8.401 6.599-15 15-15h45v-30h-45c-8.401 0-15-6.601-15-15 0-8.401 6.599-15 15-15h43.5c-6.901-34.2-37.2-60-73.5-60h-60c-36.301 0-66.599 25.8-73.5 60h43.5c8.401 0 15 6.599 15 15 0 8.399-6.599 15-15 15h-45v30h45c8.401 0 15 6.599 15 15 0 8.399-6.599 15-15 15h-45v30h45c8.401 0 15 6.599 15 15 0 8.399-6.599 15-15 15h-45v30h-45c-8.401 0-15 6.599-15 15v60c0 69.3 52.8 126 120 133.5v33.5h90v-33.5c67.2-7.5 120-64.2 120-133.5v-60c0-8.401-6.599-15-15-15zm-15 75c0 57.9-47.1 105-105 105h-60c-57.9 0-105-47.1-105-105v-45h270z" fill="url(#SVGID_2_)"/></g><g><g><path d="m458.357 356.17c-11.702-12.387-31.441-11.937-42.422-.308l-38.994 38.745-8.584-8.438c-11.738-12.425-31.566-11.838-42.158-.557-12.323 11.646-12.091 31.35-.293 42.495l29.443 29.414c5.391 6.022 13.301 9.479 21.651 9.479s16.26-3.457 21.094-8.892l59.707-59.722c12.512-11.823 11.826-31.632.556-42.216z" fill="url(#SVGID_3_)"/></g></g><g><g><path d="m392 272c-66.301 0-120 53.699-120 120 0 66.299 53.699 120 120 120s120-53.701 120-120c0-66.301-53.699-120-120-120zm55.499 115.499-60 60c-2.699 3.001-6.599 4.501-10.499 4.501s-7.8-1.5-10.499-4.501l-30-30c-6-5.7-6-15.3 0-21 5.7-5.999 15.299-5.999 20.999 0l19.501 19.2 49.501-49.2c5.7-5.999 15.299-5.999 20.999 0 5.999 5.7 5.999 15.3-.002 21z" fill="url(#SVGID_4_)"/></g></g></g></svg>