<svg id="Capa_1" enable-background="new 0 0 512 512" height="512" viewBox="0 0 512 512" width="512" xmlns="http://www.w3.org/2000/svg" xmlns:xlink="http://www.w3.org/1999/xlink"><linearGradient id="SVGID_1_" gradientUnits="userSpaceOnUse" x1="74.981" x2="437.02" y1="437.019" y2="74.98"><stop offset="0" stop-color="#0056e0"/><stop offset="1" stop-color="#fc54ff"/></linearGradient><radialGradient id="SVGID_2_" cx="256.001" cy="256" gradientUnits="userSpaceOnUse" r="256.324"><stop offset=".0053" stop-color="#8d00db" stop-opacity=".66"/><stop offset=".2052" stop-color="#a915e4" stop-opacity=".527"/><stop offset=".5624" stop-color="#d637f3" stop-opacity=".29"/><stop offset=".8392" stop-color="#f24cfc" stop-opacity=".107"/><stop offset="1" stop-color="#fc54ff" stop-opacity="0"/></radialGradient><linearGradient id="lg1"><stop offset="0" stop-color="#fc54ff"/><stop offset=".2201" stop-color="#fd75ff"/><stop offset=".7016" stop-color="#fec8ff"/><stop offset="1" stop-color="#fff"/></linearGradient><linearGradient id="SVGID_3_" gradientUnits="userSpaceOnUse" x1="-183.235" x2="361.894" xlink:href="#lg1" y1="579.774" y2="34.646"/><linearGradient id="SVGID_4_" gradientUnits="userSpaceOnUse" x1="-275.769" x2="320.115" xlink:href="#lg1" y1="652.675" y2="56.79"/><linearGradient id="SVGID_5_" gradientUnits="userSpaceOnUse" x1="26.483" x2="333.644" xlink:href="#lg1" y1="621.232" y2="314.071"/><linearGradient id="SVGID_6_" gradientUnits="userSpaceOnUse" x1="106.429" x2="329.36" xlink:href="#lg1" y1="522.403" y2="299.472"/><linearGradient id="SVGID_7_" gradientUnits="userSpaceOnUse" x1="256" x2="256" y1="416.879" y2="370.659"><stop offset="0" stop-color="#fc54ff" stop-opacity="0"/><stop offset=".4381" stop-color="#fa53fe" stop-opacity=".291"/><stop offset=".5958" stop-color="#f34dfc" stop-opacity=".395"/><stop offset=".7083" stop-color="#e844f8" stop-opacity=".47"/><stop offset=".7992" stop-color="#d738f3" stop-opacity=".53"/><stop offset=".8771" stop-color="#c127ec" stop-opacity=".582"/><stop offset=".9449" stop-color="#a613e3" stop-opacity=".627"/><stop offset=".9947" stop-color="#8d00db" stop-opacity=".66"/></linearGradient><linearGradient id="SVGID_8_" gradientUnits="userSpaceOnUse" x1="10.022" x2="299.016" xlink:href="#lg1" y1="614.292" y2="325.297"/><linearGradient id="SVGID_9_" gradientUnits="userSpaceOnUse" x1="-8.486" x2="333.275" xlink:href="#lg1" y1="352.244" y2="10.483"/><linearGradient id="SVGID_10_" gradientUnits="userSpaceOnUse" x1="148.85" x2="664.569" xlink:href="#lg1" y1="431.631" y2="-84.089"/><linearGradient id="SVGID_11_" gradientUnits="userSpaceOnUse" x1="-574.697" x2="421.636" xlink:href="#lg1" y1="1058.655" y2="62.323"/><linearGradient id="SVGID_12_" gradientUnits="userSpaceOnUse" x1="256" x2="256" y1="233.154" y2="28.361"><stop offset=".0053" stop-color="#8d00db" stop-opacity=".66"/><stop offset=".0551" stop-color="#a613e3" stop-opacity=".627"/><stop offset=".1229" stop-color="#c127ec" stop-opacity=".582"/><stop offset=".2008" stop-color="#d738f3" stop-opacity=".53"/><stop offset=".2917" stop-color="#e844f8" stop-opacity=".47"/><stop offset=".4042" stop-color="#f34dfc" stop-opacity=".395"/><stop offset=".5619" stop-color="#fa53fe" stop-opacity=".291"/><stop offset="1" stop-color="#fc54ff" stop-opacity="0"/></linearGradient><linearGradient id="lg2"><stop offset="0" stop-color="#364aff"/><stop offset="1" stop-color="#fc54ff"/></linearGradient><linearGradient id="SVGID_13_" gradientUnits="userSpaceOnUse" x1="76.836" x2="306.236" xlink:href="#lg2" y1="387.178" y2="157.778"/><linearGradient id="SVGID_14_" gradientUnits="userSpaceOnUse" x1="-6.736" x2="364.581" xlink:href="#lg2" y1="579.767" y2="208.45"/><linearGradient id="SVGID_15_" gradientUnits="userSpaceOnUse" x1="9.224" x2="342.695" xlink:href="#lg2" y1="534.878" y2="201.407"/><linearGradient id="SVGID_16_" gradientUnits="userSpaceOnUse" x1="-87.664" x2="356.403" xlink:href="#lg2" y1="577.887" y2="133.82"/><linearGradient id="SVGID_17_" gradientUnits="userSpaceOnUse" x1="137.905" x2="291.013" xlink:href="#lg1" y1="365.749" y2="212.641"/><linearGradient id="SVGID_18_" gradientUnits="userSpaceOnUse" x1="185.699" x2="287.021" xlink:href="#lg1" y1="317.972" y2="216.65"/><linearGradient id="SVGID_19_" gradientUnits="userSpaceOnUse" x1="-143.564" x2="372.392" xlink:href="#lg2" y1="801.757" y2="285.802"/><linearGradient id="SVGID_20_" gradientUnits="userSpaceOnUse" x1="-163.298" x2="327.582" xlink:href="#lg2" y1="881.944" y2="391.064"/><g><circle cx="256" cy="256" fill="url(#SVGID_1_)" r="256"/><circle cx="256" cy="256" fill="url(#SVGID_2_)" r="256"/><path d="m226.139 46.689c-26.67 12.322-45.907 40.078-46.299 71.333-.295 25.408-.499 50.818-.611 76.226 51.181-.531 102.362-.531 153.543 0-.067-15.246-.168-30.49-.301-45.736-35.916-34.214-71.582-68.711-106.332-101.823z" fill="url(#SVGID_3_)"/><path d="m256 40.1c-10.597-.001-20.677 2.37-29.861 6.589 2.632 56.321 49.171 100.661 106.332 101.823-.089-10.163-.192-20.327-.31-30.491-.613-41.927-34.896-77.865-76.161-77.921z" fill="url(#SVGID_4_)"/><path d="m240.768 364.983c.035 15.37.077 30.74.126 46.109 12.588.096 25.177.072 37.765-.072.073-15.363.136-30.727.189-46.09-12.693.105-25.387.123-38.08.053z" fill="url(#SVGID_5_)"/><path d="m233.152 364.931c.053 15.363.116 30.727.189 46.09 5.035.057 10.071.095 15.106.115-.024-15.374-.045-30.747-.063-46.121-5.077-.015-10.155-.042-15.232-.084z" fill="url(#SVGID_6_)"/><path d="m233.152 364.931c.053 15.363.116 30.727.189 46.09 15.106.172 30.212.172 45.318 0 .073-15.363.136-30.727.189-46.09-15.232.125-30.464.125-45.696 0z" fill="url(#SVGID_7_)"/><path d="m248.356 338.107c.013 14.094.028 28.187.046 42.281 10.13.031 20.259 0 30.389-.094 4.195-.041 7.614-3.521 7.636-7.76.056-11.517.106-23.034.147-34.55-12.739.11-25.478.151-38.218.123z" fill="url(#SVGID_8_)"/><path d="m125.358 217.5c.029-7.5.073-15 .13-22.5.065-8.274 7.003-15.153 15.472-15.338-.019-.022 7.48 26.289 7.498 26.308-2.602 8.848-5.191 17.677-7.765 26.483-8.491.014-15.368-6.678-15.335-14.953z" fill="url(#SVGID_9_)"/><path d="m386.642 217.5c-.029-7.5-.073-15-.13-22.5-.065-8.274-7.003-15.153-15.472-15.338.019-.022-7.48 26.289-7.498 26.308 2.602 8.848 5.192 17.677 7.765 26.483 8.491.014 15.368-6.678 15.335-14.953z" fill="url(#SVGID_10_)"/><path d="m363.304 171.949c-4.232-.094-7.635 3.232-7.603 7.418.135 17.682.213 35.363.232 53.045 0 53.987-45.235 99.647-99.933 99.813-54.697-.167-99.933-45.825-99.933-99.813.019-17.682.096-35.363.232-53.045.032-4.187-3.37-7.511-7.603-7.418-4.232.094-7.698 3.551-7.736 7.713-.156 17.597-.245 35.194-.267 52.791-.049 51.639 36.381 96.71 84.752 110.839.037 9.748.08 19.495.127 29.243.022 4.239 3.441 7.72 7.636 7.76 5.065.047 10.13.078 15.194.094 4.195.012 7.596-3.43 7.597-7.676 0-8.371 0-16.741 0-25.112 62.943-.253 115.293-53.284 115.307-115.147-.022-17.597-.111-35.194-.267-52.791-.036-4.163-3.502-7.62-7.735-7.714z" fill="url(#SVGID_11_)"/><path d="m256 40.1c-41.265.058-75.548 35.992-76.16 77.922-.295 25.408-.499 50.818-.611 76.226 51.181-.531 102.362-.531 153.543 0-.112-25.409-.316-50.818-.611-76.227-.613-41.927-34.896-77.865-76.161-77.921z" fill="url(#SVGID_12_)"/><path d="m209.984 178.665c-10.226.084-20.452.197-30.677.338-4.235.06-7.691 3.518-7.715 7.72-.086 15.218-.136 30.436-.15 45.654-.008 46.025 38.097 84.372 84.559 84.473-15.323-46.125-30.839-92.327-46.017-138.185z" fill="url(#SVGID_13_)"/><path d="m256 316.85c.125 0 .247-.007.372-.009-.125 0-.247.007-.372.009z" fill="url(#SVGID_14_)"/><path d="m332.693 179.002c-10.226-.141-20.452-.253-30.677-.337-14.257 45.843-28.843 92.004-43.256 138.114 45.19-1.594 81.81-39.288 81.799-84.403-.014-15.218-.064-30.436-.15-45.654-.024-4.201-3.48-7.66-7.716-7.72z" fill="url(#SVGID_15_)"/><path d="m302.016 178.665c-30.677-.253-61.355-.253-92.032 0-4.235.034-7.683 3.498-7.699 7.724-.091 25.519-.119 51.038-.082 76.557.061 29.542 24.21 53.881 53.797 53.904 29.586-.025 53.735-24.361 53.797-53.904.037-25.519.009-51.038-.082-76.557-.016-4.227-3.464-7.686-7.699-7.724z" fill="url(#SVGID_16_)"/><path d="m286.749 247.653c-.007 16.952-13.786 30.753-30.749 30.759-16.963-.005-30.742-13.809-30.749-30.759-.003-16.949 13.776-30.735 30.749-30.741 16.974.005 30.752 13.792 30.749 30.741z" fill="url(#SVGID_17_)"/><path d="m263.685 263.036c-16.975.005-30.75-13.779-30.747-30.742 0-1.881.179-3.72.504-5.508-5.082 5.486-8.194 12.813-8.192 20.868.007 16.949 13.786 30.755 30.749 30.759 15.084-.002 27.638-10.924 30.245-25.254-5.618 6.062-13.645 9.872-22.559 9.877z" fill="url(#SVGID_18_)"/><path d="m248.517 395.762c-8.041-.028-16.081-.099-24.122-.215-4.019-.059-7.863 1.49-10.678 4.311-2.68 2.683-5.355 5.36-8.024 8.027-11.223 11.218-26.418 17.094-42.386 16.265-.886-.046-1.771-.091-2.657-.138-4.159-.218-7.448 2.977-7.343 7.154.106 4.178 3.552 7.774 7.692 8.013 44.198 2.531 88.395 3.296 132.593 2.294-14.856-15.002-29.901-30.285-45.075-45.711z" fill="url(#SVGID_19_)"/><path d="m351.35 424.013c-.886.047-1.771.093-2.657.138-15.968.829-31.163-5.048-42.386-16.265-2.67-2.667-5.345-5.343-8.024-8.027-2.815-2.822-6.659-4.367-10.678-4.311-13.029.187-26.058.259-39.087.215.085 25.475 20.256 46.291 45.075 45.712 19.136-.434 38.272-1.199 57.407-2.294 4.141-.24 7.587-3.835 7.692-8.013.106-4.177-3.184-7.373-7.342-7.155z" fill="url(#SVGID_20_)"/></g></svg>